#!OML:ASF F:\VICON\USERDATA\INSTALL\rory3\rory3.ASF
:FULLY-SPECIFIED
:DEGREES
66
root -0.6509334074681639 18.10847811431259 23.418936693057987 4.188754431060225 -3.5841576321402147 0.8372562045314884
lfemur 17.807732252936958 -2.57403793579158 -26.73509027053267
ltibia 2.4406294715288652
lfoot 30.342649163703733 -13.322389677839881
ltoes -11.597270194318286
rfemur -46.0422000453219 -1.5622249259985108 20.630208526707857
rtibia 106.11046531005717
rfoot 6.815103766593412 -3.926761748933024
rtoes 7.241634693575408
lowerback 1.0 0.3473772928453237 -2.0497498066387485
upperback -1.5293595028297182 0.2226053923032456 1.3941394357200603
thorax -8.560667616475978 -0.6030200332403594 2.46583645733171
lowerneck -15.39757186844976 -2.4682015623323514 -1.8537491367782644
upperneck 13.758792469691826 -2.6500952497788153 3.5698135093833185
head 7.423701051395194 -1.070766844705729 0.7951719263115422
lclavicle 2.8636786628969985e-14 1.9975681089657903e-14
lhumerus -35.611338723160046 -12.72905559279542 88.64481720207417
lradius 142.95022351607471
lwrist 33.21168482150503
lhand -28.108403872971653 -11.31884950773675
lfingers nan
lthumb -0.22772435621308063 21.16841895481732
rclavicle 3.49481180247294e-14 2.342804441252432e-14
rhumerus -73.93958015901197 7.814062744616899 -93.51534074787321
rradius 85.70245253907373
rwrist -14.215920776521418
rhand -23.871066343243445 1.0
rfingers nan
rthumb 2.8996120357310433 11.718011616283
67
root -0.6153595096961302 18.11545156535129 23.641069163023268 4.331574542048031 -3.341599373907068 0.9197632440609749
lfemur 17.159037791555406 -3.247396001712999 -27.124651958611192
ltibia 2.9843806901956285
lfoot 31.482093296388108 -16.278665267328016
ltoes -16.15971616446457
rfemur -45.495356834912535 -1.7894624355043445 20.376045574433608
rtibia 99.89477267380417
rfoot 7.004627290757605 -4.065273831518037
rtoes 3.8907847133747335
lowerback 1.0 0.20394661030276107 -1.7500619127464154
upperback -1.6886793716231892 0.05872635089517275 1.3906175751156327
thorax -8.595967355422669 -0.6919361044221602 2.4205164945497635
lowerneck -15.170553533408278 -2.571506753714548 -1.8544849741163352
upperneck 13.77809121975673 -2.6705068019057157 3.52272777510515
head 7.387369666819171 -1.0639983045149783 0.7861388200013721
lclavicle 2.013670636556009e-14 1.5275953143033282e-14
lhumerus -36.15929259657841 -12.879970039618946 88.6995698084752
lradius 142.58801099912785
lwrist 33.91347043483683
lhand -27.738868195452802 -10.955364883083375
lfingers nan
lthumb 0.13847558883451327 21.52730050715291
rclavicle 2.632869870068596e-14 1.86991960957188e-14
rhumerus -73.97021704966255 7.337257244409407 -92.98560625087015
rradius 86.66655290351359
rwrist -13.454957282474107
rhand -23.63177893430892 1.0
rfingers nan
rthumb 3.09965165649054 11.865109215908111
68
root -0.6029619597014724 18.128247956489936 24.672981877293626 4.392922210062997 -3.1165621766167733 1.3062913075319724
lfemur 16.442465158233354 -3.6842750382199023 -27.70875136346495
ltibia 4.328611477265802
lfoot 30.970018372087196 -12.87003659527563
ltoes -5.455621640802742
rfemur -44.45831630715668 -1.9337896393847447 19.8562201574072
rtibia 93.68884731551604
rfoot 7.336978595535415 -4.157228862613515
rtoes 3.293034934475409
lowerback 1.0 0.09449461254221192 -1.9013985037851997
upperback -1.8543256235211085 -0.0808609465872343 1.3627988422392117
thorax -8.726450140868353 -0.7644343515076758 2.509833537712533
lowerneck -14.89998159928048 -2.6841320500704646 -1.8280631119813449
upperneck 13.695806534214599 -2.6984279525896953 3.4539751883846415
head 7.313094231498194 -1.0703001866519724 0.7677777813518087
lclavicle -3.7489136873617747e-14 1.5814220110945046e-14
lhumerus -37.11172330401056 -12.972313130528761 89.01503901850712
lradius 142.27693555247754
lwrist 34.7496010248225
lhand -27.778962259306592 -9.350448932783443
lfingers nan
lthumb 0.11035568068186707 23.178273882702136
rclavicle -3.0520269260012676e-14 1.9137919208626418e-14
rhumerus -73.9244632458983 6.955222440669514 -92.57191196236148
rradius 87.4936502632799
rwrist -12.655082147554307
rhand -23.608421919250812 1.0
rfingers nan
rthumb 3.114666271720006 12.036069939816189
69
root -0.6070566823155699 18.144350158776433 24.82990515436601 4.462540919159755 -2.96730723453093 1.6793803981003752
lfemur 15.754315326121556 -4.015918479711553 -28.247067559172628
ltibia 6.105978350391247
lfoot 31.10709153422365 -12.751722667770341
ltoes 0.5921843302562007
rfemur -43.56195232055566 -2.0854014423106446 19.238097092593527
rtibia 87.5403367819598
rfoot 7.913663888686013 -4.598379731853197
rtoes 3.1280131769496142
lowerback 1.0 0.018121577597795868 -2.18461646497615
upperback -1.9448918788463632 -0.23556394974714068 1.349446193354444
thorax -8.668579248272781 -0.8147852204054232 2.6011119607425313
lowerneck -14.877326297968777 -2.8227386837433532 -1.7879158886609534
upperneck 13.499570563356631 -2.7409506946472293 3.3599969464384905
head 7.224253203041374 -1.09773899842652 0.7423002745026446
lclavicle 2.2987562757792356e-14 1.2878166932161097e-14
lhumerus -37.94760106942971 -13.01325061026391 89.30597769367068
lradius 141.689978562345
lwrist 35.485837949342724
lhand -27.912371470681023 -8.479620712859596
lfingers nan
lthumb -0.005257149975468778 24.09728258060735
rclavicle 2.962669964136402e-14 1.6027496921782546e-14
rhumerus -73.62258551508516 6.6145625030954305 -92.28214678979697
rradius 88.02294361930055
rwrist -11.961400377305933
rhand -23.508795170166522 1.0
rfingers nan
rthumb 3.1967462309231145 12.411500508254784
